<?xml version="1.0" encoding="UTF-8" standalone="no"?>
<svg
   xmlns:dc="http://purl.org/dc/elements/1.1/"
   xmlns:cc="http://creativecommons.org/ns#"
   xmlns:rdf="http://www.w3.org/1999/02/22-rdf-syntax-ns#"
   xmlns:svg="http://www.w3.org/2000/svg"
   xmlns="http://www.w3.org/2000/svg"
   xmlns:xlink="http://www.w3.org/1999/xlink"
   style="enable-background:new 0 0 259.29166 259.29166;"
   width="28" height="28"
   viewBox="0 0 259.29166 259.29166"
   version="1.1"
   id="svg17">
  <defs
     id="defs11" />
  <metadata
     id="metadata14">
    <rdf:RDF>
      <cc:Work
         rdf:about="">
        <dc:format>image/svg+xml</dc:format>
        <dc:type
           rdf:resource="http://purl.org/dc/dcmitype/StillImage" />
        <dc:title></dc:title>
      </cc:Work>
    </rdf:RDF>
  </metadata>
  <g
     id="layer1"
     transform="translate(2.6458282,8.6934471)">
    <image
       width="259.29166"
       height="259.29166"
       preserveAspectRatio="none"
       style="image-rendering:optimizeQuality;fill:#d1cecc;fill-opacity:1"
       id="image29"
       x="-2.6458282"
       y="-8.6934471" />
    <path
       style="fill:#d1cecc;fill-opacity:1;stroke-width:2.85714"
       d="M 485.23992,0.56359609 C 357.15007,-1.1227306 229.4841,52.169497 140.79797,144.58145 51.634986,232.53633 -2.4318341,356.82895 1.6073208,482.72875 c -2.51561145,61.34786 7.02237,122.78834 29.9379252,179.8534 44.957143,124.90574 143.152194,229.57392 266.535074,279.44349 67.98886,30.6954 143.2216,41.9658 217.394,36.79688 C 690.04241,973.21881 856.83535,864.64744 930.88912,706.15955 996.46864,567.57004 998.5135,397.04824 924.89347,261.0473 849.90315,114.0066 694.88704,11.491828 529.81775,2.0195989 514.98724,0.91814609 500.11012,0.46546495 485.23992,0.56359609 Z M 320.14507,159.09038 c 25.91403,3.37575 34.41343,33.51581 49.80857,50.63789 20.54166,33.30082 48.57217,62.96728 62.45706,99.83645 1.92094,22.2834 -26.37163,29.37783 -39.42898,42.1244 -17.31028,10.80869 -37.29685,29.3748 -28.15474,51.97715 16.2648,63.32694 53.77249,119.71314 98.4152,166.64622 23.50303,20.84823 47.72786,46.473 79.67632,52.40512 27.6376,-9.52817 47.55157,-34.97017 75.7422,-42.37723 22.91425,3.97691 32.69165,30.13269 46.97091,45.84837 21.54374,32.99529 51.32783,61.79303 65.70209,98.83354 1.70685,21.1814 -24.59266,28.9222 -37.12612,41.21095 -32.25566,28.35274 -77.88231,22.71688 -117.42188,19.82143 -94.42606,-18.16332 -164.06509,-92.92278 -220.31106,-165.86 -56.10343,-73.12492 -106.72759,-153.93049 -128.18783,-244.50272 -8.52464,-54.91154 -10.81216,-116.54787 19.3192,-165.61384 18.93553,-21.47987 44.00523,-38.35927 69.52009,-50.87054 0.99734,-0.15379 2.01188,-0.19282 3.01897,-0.11719 z"
       id="path856"
       transform="matrix(0.26458333,0,0,0.26458333,-2.6458282,-8.6934471)" />
  </g>
</svg>
